<svg height="512pt" viewBox="0 0 512 512" width="512pt" xmlns="http://www.w3.org/2000/svg"><path d="m43.195312 143.304688h112.699219v30.609374c0 3.90625 1.171875 7.671876 3.394531 10.890626l54.292969 78.71875c2.878907 4.191406 7.632813 6.691406 12.714844 6.691406h14.707031v26.894531c0 8.285156 6.714844 15 15 15s15-6.714844 15-15v-26.894531h14.777344c5.085938 0 9.839844-2.5 12.703125-6.675782l54.242187-78.742187c2.214844-3.214844 3.386719-6.976563 3.386719-10.882813v-30.609374h112.691407c23.816406 0 43.195312-19.378907 43.195312-43.195313 0-23.820313-19.378906-43.199219-43.195312-43.199219h-112.691407v-16.734375c0-22.152343-18.023437-40.175781-40.175781-40.175781h-119.867188c-22.152343 0-40.175781 18.023438-40.175781 40.175781v16.734375h-112.699219c-23.816406 0-43.195312 19.378906-43.195312 43.199219 0 23.816406 19.378906 43.195313 43.195312 43.195313zm234.925782 96.910156h-44.171875l-34.484375-50h113.101562zm190.683594-153.304688c7.273437 0 13.195312 5.921875 13.195312 13.199219 0 7.273437-5.921875 13.195313-13.195312 13.195313h-112.691407v-26.394532zm-282.910157-46.734375c0-5.609375 4.566407-10.175781 10.175781-10.175781h119.867188c5.609375 0 10.175781 4.5625 10.175781 10.175781v120.039063h-140.21875zm-142.699219 46.734375h112.699219v26.394532h-112.699219c-7.273437 0-13.195312-5.917969-13.195312-13.195313s5.921875-13.199219 13.195312-13.199219zm0 0"/><path d="m471.996094 386.058594h-133.5625v-35.539063c0-10.777343-8.769532-19.546875-19.546875-19.546875h-126.347657c-10.457031 0-18.964843 8.507813-18.964843 18.964844v36.121094h-133.570313c-22.058594 0-40.003906 17.945312-40.003906 40.003906v45.9375c0 22.054688 17.945312 40 40.003906 40h431.992188c22.058594 0 40.003906-17.945312 40.003906-40.003906v-45.933594c0-22.058594-17.945312-40.003906-40.003906-40.003906zm-268.421875-25.085938h104.859375v23.421875h-104.859375zm-163.570313 55.085938h431.992188c5.515625 0 10.003906 4.488281 10.003906 10.003906v7.648438h-452v-7.648438c0-5.515625 4.488281-10.003906 10.003906-10.003906zm431.992188 65.941406h-431.992188c-5.515625 0-10.003906-4.488281-10.003906-10.003906v-8.285156h452v8.285156c0 5.515625-4.488281 10.003906-10.003906 10.003906zm0 0"/></svg>
