<?xml version="1.0"?>
<svg xmlns="http://www.w3.org/2000/svg" height="512px" viewBox="0 0 512 512" width="512px"><g><path d="m408.886719 103.414062c0 .003907.054687.058594.058593.058594 1.945313 1.949219 4.488282 2.917969 7.03125 2.917969 2.558594 0 5.121094-.984375 7.082032-2.9375 3.902344-3.902344 3.882812-10.257813-.019532-14.167969l-.210937-.210937c-3.933594-3.875-10.265625-3.835938-14.144531.101562-3.875 3.929688-3.832032 10.261719.101562 14.140625zm0 0" data-original="#000000" class="active-path" data-old_color="#ffffff" fill="#ffffff"/><path d="m502 246h-10.226562c-1.90625-44.597656-16.382813-88.023438-41.96875-124.738281-3.15625-4.53125-9.390626-5.644531-13.921876-2.488281-4.53125 3.160156-5.648437 9.390624-2.488281 13.921874 24.007813 34.453126 36.703125 73.777344 38.511719 113.304688h-9.90625c-5.523438 0-10 4.476562-10 10s4.476562 10 10 10h9.90625c-2.445312 52.203125-23.824219 103.386719-63.171875 142.734375-38.429687 38.429687-88.792969 60.589844-142.734375 63.03125v-9.765625c0-5.523438-4.476562-10-10-10s-10 4.476562-10 10v9.765625c-53.941406-2.441406-104.304688-24.601563-142.734375-63.03125s-60.589844-88.792969-63.03125-142.734375h9.765625c5.523438 0 10-4.476562 10-10s-4.476562-10-10-10h-9.765625c2.441406-53.941406 24.601563-104.304688 63.03125-142.734375 39.347656-39.347656 90.53125-60.726563 142.734375-63.171875v9.90625c0 5.523438 4.476562 10 10 10s10-4.476562 10-10v-9.90625c39.53125 1.8125 78.855469 14.503906 113.308594 38.515625 4.53125 3.15625 10.765625 2.042969 13.921875-2.488281 3.160156-4.527344 2.046875-10.761719-2.484375-13.921875-36.71875-25.589844-80.148438-40.066407-124.746094-41.972657v-10.226562c0-5.523438-4.476562-10-10-10s-10 4.476562-10 10v10.21875c-3.261719.136719-6.527344.335938-9.792969.609375-55.445312 4.640625-107.683593 28.894531-147.085937 68.292969-42.207032 42.210937-66.445313 97.59375-68.898438 156.878906h-10.222656c-5.523438 0-10 4.476562-10 10s4.476562 10 10 10h10.222656c2.453125 59.285156 26.691406 114.667969 68.898438 156.878906 42.210937 42.207032 97.59375 66.445313 156.878906 68.898438v10.222656c0 5.523438 4.476562 10 10 10s10-4.476562 10-10v-10.222656c59.285156-2.453125 114.667969-26.691406 156.878906-68.898438 39.398438-39.402344 63.652344-91.640625 68.292969-147.085937.273437-3.265625.472656-6.53125.609375-9.792969h10.21875c5.523438 0 10-4.476562 10-10s-4.476562-10-10-10zm0 0" data-original="#000000" class="active-path" data-old_color="#ffffff" fill="#ffffff"/><path d="m386.753906 214.617188v-4.300782c0-23.292968-18.949218-42.242187-42.242187-42.242187-23.296875 0-42.246094 18.949219-42.246094 42.242187v4.300782c0 11.179687 4.371094 21.351562 11.488281 28.914062-4.171875 1.894531-8.175781 4.179688-11.957031 6.828125-4.289063-2.953125-8.875-5.503906-13.703125-7.601563 8.015625-8.109374 12.972656-19.242187 12.972656-31.519531v-5.066406c0-24.742187-20.128906-44.867187-44.867187-44.867187h-.394531c-24.742188 0-44.867188 20.125-44.867188 44.867187v5.066406c0 12.277344 4.957031 23.410157 12.972656 31.519531-4.832031 2.097657-9.417968 4.648438-13.707031 7.601563-3.777344-2.648437-7.78125-4.933594-11.953125-6.828125 7.113281-7.5625 11.488281-17.734375 11.488281-28.914062v-4.300782c0-23.292968-18.953125-42.242187-42.246093-42.242187-23.292969 0-42.246094 18.949219-42.246094 42.242187v4.300782c0 11.179687 4.375 21.351562 11.492187 28.917968-25.769531 11.730469-43.738281 37.707032-43.738281 67.816406v8.597657c0 5.523437 4.476562 10 10 10h72.0625v10.746093c0 5.523438 4.476562 10 10 10h141.875c5.523438 0 10-4.476562 10-10v-10.746093h72.0625c5.523438 0 10-4.476563 10-10v-8.597657c0-30.109374-17.96875-56.085937-43.734375-67.816406 7.117187-7.566406 11.488281-17.738281 11.488281-28.917968zm-64.488281 0v-4.300782c0-12.265625 9.976563-22.242187 22.246094-22.242187 12.265625 0 22.242187 9.976562 22.242187 22.242187v4.300782c0 12.265624-9.976562 22.246093-22.242187 22.246093-12.269531 0-22.246094-9.980469-22.246094-22.246093zm-66.460937 21.492187c-13.714844 0-24.871094-11.15625-24.871094-24.867187v-5.070313c0-13.710937 11.15625-24.867187 24.871094-24.867187h.390624c13.714844 0 24.871094 11.15625 24.871094 24.867187v5.070313c0 13.710937-11.15625 24.867187-24.871094 24.867187zm-110.558594-21.492187v-4.300782c0-12.265625 9.976562-22.242187 22.242187-22.242187 12.269531 0 22.246094 9.976562 22.246094 22.242187v4.300782c0 12.265624-9.976563 22.246093-22.246094 22.246093-12.265625 0-22.242187-9.980469-22.242187-22.246093zm22.242187 42.246093c9.652344 0 19.042969 2.570313 27.28125 7.34375-10.808593 12.507813-17.859375 28.339844-19.378906 45.742188h-62.375c.746094-29.402344 24.894531-53.085938 54.472656-53.085938zm149.449219 73.832031h-121.875v-13.644531c0-33.605469 27.335938-60.941406 60.9375-60.941406s60.9375 27.335937 60.9375 60.941406zm82.042969-20.746093h-62.371094c-1.523437-17.402344-8.570313-33.234375-19.378906-45.742188 8.238281-4.773437 17.628906-7.34375 27.277343-7.34375 29.582032 0 53.730469 23.683594 54.472657 53.085938zm0 0" data-original="#000000" class="active-path" data-old_color="#ffffff" fill="#ffffff"/></g> </svg>
