<?xml version="1.0"?>
<svg xmlns="http://www.w3.org/2000/svg" height="512px" viewBox="0 -37 491.2 491" width="512px" class=""><g><path d="m480 162.5-27.199219 27.199219c-9.601562-107.199219-99.199219-189.597657-207.199219-189.597657h-16v16h16c98.398438 0 180 74.398438 191.199219 171.199219l-25.601562-25.601562-11.199219 11.199219 45.601562 45.601562 45.597657-45.601562zm0 0" data-original="#000000" class="active-path" data-old_color="#000000" fill="#141481"/><path d="m54.398438 228.898438 25.601562 25.601562 11.199219-11.199219-45.597657-46.402343-45.601562 45.601562 11.199219 11.199219 27.199219-27.199219c9.601562 107.199219 99.203124 189.601562 207.203124 189.601562h16v-16h-16c-98.402343 0-180-74.402343-191.203124-171.203124zm0 0" data-original="#000000" class="active-path" data-old_color="#000000" fill="#141481"/><path d="m333.601562 192.101562c-57.601562 0-104 46.398438-104 104 0 57.597657 46.398438 104 104 104 57.597657 0 104-46.402343 104-104 0-57.601562-46.402343-104-104-104zm32 80h-16v-8c0-4.800781-3.203124-8-8-8h-16c-4.800781 0-8 3.199219-8 8v8h16v16h-16v16h16v16h-16v8c0 4.796876 3.199219 8 8 8h16c4.796876 0 8-3.203124 8-8v-8h16v8c0 13.597657-10.402343 24-24 24h-16c-13.601562 0-24-10.402343-24-24v-8h-16v-16h16v-16h-16v-16h16v-8c0-13.601562 10.398438-24 24-24h16c13.597657 0 24 10.398438 24 24zm0 0" data-original="#000000" class="active-path" data-old_color="#000000" fill="#141481"/><path d="m157.601562 224.101562c57.597657 0 104-46.402343 104-104 0-57.601562-46.402343-104-104-104-57.601562 0-104 46.398438-104 104 0 57.597657 46.398438 104 104 104zm-32-80h16v8c0 4.796876 3.199219 8 8 8h16c4.796876 0 8-3.203124 8-8v-16c0-4.800781-3.203124-8-8-8h-16c-13.601562 0-24-10.402343-24-24v-16c0-13.601562 10.398438-24 24-24v-16h16v16c13.597657 0 24 10.398438 24 24v8h-16v-8c0-4.800781-3.203124-8-8-8h-16c-4.800781 0-8 3.199219-8 8v16c0 4.796876 3.199219 8 8 8h16c13.597657 0 24 10.398438 24 24v16c0 13.597657-10.402343 24-24 24v16h-16v-16c-13.601562 0-24-10.402343-24-24zm0 0" data-original="#000000" class="active-path" data-old_color="#000000" fill="#141481"/></g> </svg>
