<svg id="Layer_1" height="512" viewBox="0 0 512 512" width="512" xmlns="http://www.w3.org/2000/svg" data-name="Layer 1"><path d="m129.871 59.706a46.594 46.594 0 0 1 34.029 14.965 6 6 0 0 0 8.84-8.116 58.632 58.632 0 0 0 -42.808-18.849h-.03a6 6 0 0 0 -.028 12z"/><path d="m106.518 153.627a59.2 59.2 0 0 0 42.731 1.693 57.877 57.877 0 0 0 21.7-13.276 53.714 53.714 0 0 0 10.921-62.074 6 6 0 1 0 -10.8 5.228 41.734 41.734 0 0 1 -8.478 48.231 45.951 45.951 0 0 1 -17.233 10.539c-22.794 7.811-48.629-3.28-57.589-24.724a41.311 41.311 0 0 1 -1.789-27.1 44.26 44.26 0 0 1 28.922-30q.678-.228 1.352-.435a6 6 0 1 0 -3.517-11.473q-.825.254-1.654.532a56.237 56.237 0 0 0 -36.675 38.2 53.2 53.2 0 0 0 2.291 34.901 55.978 55.978 0 0 0 29.818 29.758z"/><path d="m119.715 74.458a30.744 30.744 0 0 0 -18.13 15.842 29.268 29.268 0 0 0 -1.146 22.888c4.527 12.427 16.675 20.234 29.6 20.234a32.088 32.088 0 0 0 10.222-1.673 30.744 30.744 0 0 0 18.13-15.841 29.263 29.263 0 0 0 1.146-22.888c-5.711-15.69-23.575-24.02-39.822-18.562zm27.868 36.242a18.84 18.84 0 0 1 -11.138 9.671c-10.129 3.4-21.224-1.665-24.731-11.293a17.353 17.353 0 0 1 .684-13.574 18.834 18.834 0 0 1 11.138-9.671 20.253 20.253 0 0 1 6.464-1.058 19.293 19.293 0 0 1 18.267 12.352 17.353 17.353 0 0 1 -.684 13.573z"/><path d="m116.719 249.931c12.121.472 15.019 9.7 15.322 10.8a6 6 0 0 0 11.632-2.946 26.862 26.862 0 0 0 -5.156-9.754 27.288 27.288 0 0 0 -16.733-9.595v-4.816a6 6 0 0 0 -12 0v4.861a23.273 23.273 0 0 0 -11.98 6.082c-7 6.83-7.405 16.182-7.364 18.886.164 10.847 8.584 19.977 20.477 22.2l1.114.21c.828.157 1.809.342 2.426.455.327.06 1.287.338 1.658.445a3 3 0 0 1 .33.116c.077.032.155.063.233.091l1.56.574a3.5 3.5 0 0 1 .326.139c.718.351.939.475 1.414.741l.953.538c.057.035.12.073.191.113.929.541 9.091 5.481 9.387 12.246.169 3.882-.816 6.84-3.012 9.043-3.823 3.834-10.32 4.641-13.553 4.5-4.574-.185-13.505-3.96-14.267-10.517a6 6 0 0 0 -11.92 1.386c.736 6.324 4.517 12.013 10.647 16.02a33.332 33.332 0 0 0 11.38 4.647v3.929a6 6 0 0 0 12 0v-4.206a28.167 28.167 0 0 0 14.216-7.284c4.568-4.584 6.817-10.821 6.5-18.039-.546-12.5-11.819-20.04-15.346-22.1-.074-.045-.388-.234-.481-.286l-.829-.46c-.674-.378-.989-.555-2-1.051a15.812 15.812 0 0 0 -1.46-.624l-1.458-.535a15.128 15.128 0 0 0 -1.482-.513c-1-.289-1.971-.562-2.816-.717-.6-.11-1.555-.291-2.364-.444l-1.134-.213c-7.291-1.365-10.621-6.3-10.686-10.59-.046-3.076.914-7.35 3.75-10.119 2.364-2.311 5.906-3.391 10.525-3.213z"/><path d="m345.728 137.543h-25.514a8.009 8.009 0 0 0 -8 8v76.857a8.009 8.009 0 0 0 8 8h25.514a8.009 8.009 0 0 0 8-8v-76.857a8.009 8.009 0 0 0 -8-8zm-4 80.857h-17.514v-68.857h17.514z"/><path d="m294.41 110.865h-25.51a8.009 8.009 0 0 0 -8 8v103.535a8.009 8.009 0 0 0 8 8h25.51a8.009 8.009 0 0 0 8-8v-103.535a8.009 8.009 0 0 0 -8-8zm-4 107.535h-17.51v-95.535h17.51z"/><path d="m217.578 230.4h25.514a8.009 8.009 0 0 0 8-8v-125.46a8.009 8.009 0 0 0 -8-8h-25.514a8.008 8.008 0 0 0 -8 8v125.46a8.009 8.009 0 0 0 8 8zm4-129.46h17.514v117.46h-17.514z"/><path d="m241.754 69.629c.13.008.259.012.388.012a6 6 0 0 0 5.982-5.618l.883-13.84 68.042 55.539.5.365a7.876 7.876 0 0 0 4.338 1.3h35.031a6 6 0 0 0 0-12h-33.557l-64.995-53.054 15.562.914a6 6 0 0 0 .7-11.979l-28.512-1.676a7.793 7.793 0 0 0 -8.259 6.993 5.983 5.983 0 0 0 -.151 2.187l-1.561 24.487a6 6 0 0 0 5.609 6.37z"/><path d="m265.875 369.072h-177.587a6 6 0 0 0 0 12h177.587a6 6 0 0 0 0-12z"/><path d="m265.875 435.435h-177.587a6 6 0 1 0 0 12h177.587a6 6 0 0 0 0-12z"/><path d="m265.875 402.253h-177.587a6 6 0 0 0 0 12h177.587a6 6 0 0 0 0-12z"/><path d="m265.875 335.891h-95.615a6 6 0 0 0 0 12h95.615a6 6 0 0 0 0-12z"/><path d="m265.875 302.709h-95.615a6 6 0 0 0 0 12h95.615a6 6 0 0 0 0-12z"/><path d="m459.284 422.443c-9.054-29.48-30.56-44.913-42.341-51.411a12.748 12.748 0 0 0 .9-4.682v-3.2a12.784 12.784 0 0 0 -4.111-9.386 103.165 103.165 0 0 1 9.729-15.361c4.468-5.847 8.56-8.7 12.893-11.723 1.73-1.206 3.518-2.453 5.336-3.893a9.811 9.811 0 0 0 3.421-10.908c-1.487-4.354-5.7-6.931-10.733-6.56-4.061.307-9.622-2.587-13.667-4.7a48.777 48.777 0 0 0 -5.7-2.695c-10.268-3.688-16.943 2.6-19.793 5.287a12.469 12.469 0 0 1 -2.241 1.389v-269.7c0-13.732-11.525-24.9-25.691-24.9h-291.594c-14.166 0-25.692 11.172-25.692 24.9v423.977c0 13.732 11.526 24.9 25.692 24.9h226.134a68.543 68.543 0 0 0 46.867 18.223h46.872c21.5 0 41.786-9.859 54.258-26.373a58.485 58.485 0 0 0 9.926-51.611q-.223-.786-.465-1.573zm-54.453-55.263h-64.256a6.034 6.034 0 0 0 -.642-.131.819.819 0 0 1 -.409-.7v-3.2a.83.83 0 0 1 .829-.83h64.658a.83.83 0 0 1 .829.83v3.2a.815.815 0 0 1 -.3.628 6.048 6.048 0 0 0 -.709.203zm-1.39-55.231c3.35-3.158 4.822-3.693 7.505-2.728a43.9 43.9 0 0 1 4.214 2.042c3.912 2.04 8.887 4.635 14.223 5.647-4.642 3.238-9.9 6.927-15.461 14.207a114.808 114.808 0 0 0 -11.89 19.2h-5.887l6.371-9.472a6 6 0 1 0 -9.957-6.7l-10.876 16.175h-.867l-.361-21.461a6 6 0 0 0 -6-5.9h-.1a6 6 0 0 0 -5.9 6.1l.358 21.259h-3.71l-7.69-13.063a6 6 0 1 0 -10.341 6.088l4.106 6.975h-5.435a70.312 70.312 0 0 0 -11.354-20.018 73.279 73.279 0 0 0 -19.763-17.09l-.082-.052c2.747-.37 8.441-.136 10.244.488.617.214 1.267.49 1.84.735.307.13.587.249.833.348a54.083 54.083 0 0 1 11.018 5.72l.79.523c2.761 1.8 5.879 3.5 10.924 2.766a12.145 12.145 0 0 0 8.693-5.792 41.877 41.877 0 0 0 2.411-4.295c.379-.746.877-1.729 1.2-2.206 2.214-1.077 4.786-.46 7.65 1.835 4.892 3.919 9.356 5.736 14.565 5.709a5.974 5.974 0 0 0 5.755-.685q.769-.168 1.565-.376c.506-.131 1.006-.285 1.5-.457.059-.027 6.58-2.386 9.909-5.522zm-341.441 146.928v-423.977c0-7.111 6.142-12.9 13.692-12.9h291.587c7.55 0 13.691 5.789 13.691 12.9v271.2a17.873 17.873 0 0 1 -3.322-2.19c-9.9-7.935-18.362-4.5-21.542-2.655-2.8 1.627-4.18 4.339-5.51 6.961a31.726 31.726 0 0 1 -1.716 3.1 5.3 5.3 0 0 1 -.4.539h-.024c-.858.125-.971.143-2.626-.939l-.708-.468a65.546 65.546 0 0 0 -13.166-6.853c-.187-.076-.4-.167-.63-.265-.714-.3-1.6-.682-2.61-1.031-4.189-1.453-13.4-1.78-17.912-.638a11.725 11.725 0 0 0 -3.564 1.417 11.342 11.342 0 0 0 -4.586 6.039 12.386 12.386 0 0 0 5.76 14.352 60.8 60.8 0 0 1 16.625 14.347 58.713 58.713 0 0 1 8.588 14.424 12.819 12.819 0 0 0 -6.105 10.906v3.2a12.739 12.739 0 0 0 1.241 5.469c-21.01 12.329-35.173 27.677-42.1 45.719-.484 1.259-.945 2.55-1.37 3.839a58.439 58.439 0 0 0 6.521 50.4h-216.122c-7.55.008-13.692-5.781-13.692-12.896zm378.247 9.523c-10.217 13.523-26.92 21.6-44.682 21.6h-46.872c-18.175 0-35.081-8.38-45.225-22.417a46.723 46.723 0 0 1 -6.778-42.44c.366-1.11.763-2.221 1.179-3.3 9.579-24.955 33.371-37.987 42.3-42.668.062 0 .123.009.185.009h64.658a12.836 12.836 0 0 0 1.293-.066c6.562 2.953 32.09 16.186 41.509 46.854q.207.669.4 1.333a46.583 46.583 0 0 1 -7.967 41.095z"/><path d="m376.014 387.838c-26.872 0-48.733 20.308-48.733 45.27s21.861 45.27 48.733 45.27 48.733-20.308 48.733-45.27-21.862-45.27-48.733-45.27zm0 78.54c-20.255 0-36.733-14.925-36.733-33.27s16.478-33.27 36.733-33.27 36.733 14.925 36.733 33.27-16.479 33.27-36.733 33.27z"/><path d="m382.663 408.782a6 6 0 0 0 -12 .075 14.186 14.186 0 0 0 -5.153 3.2 15.714 15.714 0 0 0 -4.5 11.354c.1 6.769 5.324 12.436 12.7 13.779l1.714.313c.167.037.372.1.538.144q.079.032.159.06l.718.256c.244.118.333.165.511.263l.363.2c.054.033.108.063.156.091 1.471.834 3.087 2.368 3.133 3.393.063 1.382-.367 1.814-.551 2a6.986 6.986 0 0 1 -4.6 1.362c-1.512-.06-4.13-1.413-4.248-2.4a6 6 0 0 0 -11.916 1.423c.76 6.361 6 10.358 10.991 12.048a5.993 5.993 0 0 0 11.96-.146 16.166 16.166 0 0 0 6.316-3.82 14.244 14.244 0 0 0 4.032-11c-.345-7.693-7.133-12.122-9.217-13.3l-.289-.161-.389-.211c-.392-.213-.57-.311-1.157-.59a10.845 10.845 0 0 0 -1-.417l-.688-.246c-.315-.123-.637-.23-.978-.327-.6-.168-1.137-.315-1.68-.411l-1.735-.318c-1.942-.354-2.838-1.366-2.851-2.158a3.844 3.844 0 0 1 .89-2.59 4.491 4.491 0 0 1 3.118-.76c3.56.135 4.6 2.194 4.882 3.073l-.043-.155 11.629-2.963a16.593 16.593 0 0 0 -10.815-11.061z"/></svg>