<svg height="400pt" viewBox="0 -1 400 400" width="400pt" xmlns="http://www.w3.org/2000/svg"><g fill="#63316d"><path d="m198.738281 20c31.210938 0 62.488281 8.800781 90.457031 25.441406 18.074219 10.792969 34.308594 24.410156 48.078126 40.335938l-46.984376-1.550782c-5.507812-.164062-10.109374 4.15625-10.289062 9.664063-.183594 5.507813 4.125 10.125 9.628906 10.324219l65.019532 2.144531c3.738281 1.535156 8.027343.671875 10.878906-2.183594 2.851562-2.859375 3.707031-7.152343 2.164062-10.882812l-2.148437-65c-.238281-5.476563-4.839844-9.742188-10.320313-9.558594-5.476562.179687-9.789062 4.738281-9.667968 10.21875l1.242187 37.535156c-13.925781-14.894531-29.871094-27.765625-47.371094-38.230469-31.0625-18.488281-65.878906-28.257812-100.6875-28.257812-56 0-107.625 23.089844-145.355469 65.011719-33.429687 37.140625-53.382812 87.128906-53.382812 133.726562 0 5.523438 4.476562 10 10 10s10-4.476562 10-10c0-41.789062 18.035156-86.777343 48.246094-120.34375 33.890625-37.65625 80.234375-58.394531 130.492187-58.394531zm0 0"/><path d="m390 188.738281c-5.523438 0-10 4.480469-10 10 0 41.792969-18.035156 86.78125-48.246094 120.347657-33.890625 37.652343-80.234375 58.394531-130.492187 58.394531-31.210938 0-62.488281-8.800781-90.457031-25.441407-18.074219-10.792968-34.308594-24.410156-48.078126-40.335937l46.984376 1.550781c5.507812.164063 10.109374-4.160156 10.289062-9.664062.183594-5.507813-4.125-10.125-9.628906-10.324219l-65.023438-2.148437c-3.734375-1.53125-8.023437-.667969-10.875 2.1875-2.851562 2.859374-3.707031 7.152343-2.164062 10.882812l2.148437 65c.175781 5.390625 4.59375 9.667969 9.988281 9.671875.109376 0 .222657-.003906.335938-.007813 5.519531-.183593 9.84375-4.804687 9.664062-10.324218l-1.242187-37.535156c13.925781 14.894531 29.871094 27.765624 47.371094 38.230468 31.0625 18.484375 65.878906 28.253906 100.6875 28.253906 56.003906 0 107.625-23.085937 145.355469-65.011718 33.429687-37.136719 53.382812-87.125 53.382812-133.726563 0-5.519531-4.476562-10-10-10zm0 0"/></g></svg>