<?xml version="1.0"?>
<svg xmlns="http://www.w3.org/2000/svg" id="Outline" viewBox="0 0 64 64" width="512" height="512"><path d="M24,18H12a1,1,0,0,0-1,1v7.723L5.855,35.3A6,6,0,0,0,5,38.385V45.1a32.65,32.65,0,0,0,.975,7.917L6,62H8V53a.984.984,0,0,0-.03-.242l-.055-.221A30.688,30.688,0,0,1,7,45.1V38.385a4,4,0,0,1,.57-2.058L11,30.61V39a1,1,0,0,0,1.707.707l5.5-5.5a1.1,1.1,0,0,1,.593-.288l.009,0a1.108,1.108,0,0,1,.984,1.876l-4.5,4.5a1,1,0,0,0,.26,1.6A6.2,6.2,0,0,1,19,47.472a5.5,5.5,0,0,1-.578,2.447l-1.317,2.634A1,1,0,0,0,17,53v9h2V53.236l1.211-2.423A7.508,7.508,0,0,0,21,47.472,8.188,8.188,0,0,0,18.918,42H24a1,1,0,0,0,1-1V19A1,1,0,0,0,24,18Zm-1,2.722A2.015,2.015,0,0,1,22.278,20H23ZM13.722,20a2.015,2.015,0,0,1-.722.722V20ZM18.5,31.928c-.072.011-.142.026-.213.043a2,2,0,1,1,.213-.043Zm2.7,5.279a3.119,3.119,0,0,0,0-4.414c-.065-.065-.141-.113-.21-.172a4,4,0,1,0-4.905.873L13,36.586V22.858A4,4,0,0,0,15.858,20h4.284A4,4,0,0,0,23,22.858V37.142A4,4,0,0,0,20.142,40H18.414ZM22.278,40A2.015,2.015,0,0,1,23,39.278V40Z"/><path d="M59.17,12.934l-.033-8.98h-2v8.968a.931.931,0,0,0,.03.241l.062.252a30.888,30.888,0,0,1,.908,7.434v6.685a4.042,4.042,0,0,1-.568,2.064l-3.432,5.766V26.985a1,1,0,0,0-1.71-.7L46.9,31.85a1.08,1.08,0,0,1-1.58-.049,1.117,1.117,0,0,1,0-1.568l4.524-4.56a1,1,0,0,0-.26-1.6,6.274,6.274,0,0,1-3.45-5.656,5.493,5.493,0,0,1,.569-2.43l1.327-2.674a1,1,0,0,0,.1-.444V3.954h-2v8.684L45.461,14H29a1,1,0,0,0-1,1V40c0,.017.009.031.01.047a.946.946,0,0,0,.053.264c.01.031.013.064.026.094a1,1,0,0,0,.2.3c.017.018.041.027.059.044a1.019,1.019,0,0,0,.205.15l.658.329a1.426,1.426,0,0,1,0,2.552l-.658.329A1,1,0,0,0,29,46H50.5A3.5,3.5,0,0,0,54,42.5V39.505l5.288-8.884a6.043,6.043,0,0,0,.849-3.087V20.849A32.893,32.893,0,0,0,59.17,12.934ZM48,33.52V35H34V29h9.761A3.117,3.117,0,0,0,48,33.52ZM30,16H44.547a7.546,7.546,0,0,0-.385,2H33v2H44.3a8.313,8.313,0,0,0,.641,2H33v2H46.262a8.24,8.24,0,0,0,1.275,1.161L45.713,27H33a1,1,0,0,0-1,1v8a1,1,0,0,0,1,1H49a1,1,0,0,0,1-1V31.567l2-2.016v9.787c-.021-.01-.046-.014-.067-.024a3.526,3.526,0,0,0-.454-.157c-.079-.024-.154-.056-.235-.073A3.441,3.441,0,0,0,50.5,39H30ZM50.5,44H31.658a3.46,3.46,0,0,0,0-3H50.5a1.5,1.5,0,0,1,0,3Z"/></svg>
