<?xml version="1.0"?>
<svg xmlns="http://www.w3.org/2000/svg" height="512px" viewBox="0 0 512.00058 512" width="512px" class=""><g><path d="m502 492h-44v-190c0-5.523438-4.476562-10-10-10h-80c-5.523438 0-10 4.476562-10 10v72h-70c-5.523438 0-10 4.476562-10 10v108h-44v-41.5c0-5.523438-4.476562-10-10-10s-10 4.476562-10 10v41.5h-60v-163h60v41.5c0 5.523438 4.476562 10 10 10s10-4.476562 10-10v-51.5c0-5.523438-4.476562-10-10-10h-80c-5.523438 0-10 4.476562-10 10v55h-70c-5.523438 0-10 4.476562-10 10v108h-34v-364c0-5.523438-4.476562-10-10-10s-10 4.476562-10 10v374c0 5.523438 4.476562 10 10 10h492c5.523438 0 10-4.476562 10-10s-4.476562-10-10-10zm-428-98h60v98h-60zm224 0h60v98h-60zm80 98v-180h60v180zm0 0" data-original="#000000" class="active-path" data-old_color="#ffffff" fill="#ffffff"/><path d="m224 400.5c-2.628906 0-5.210938 1.070312-7.070312 2.929688-1.859376 1.859374-2.929688 4.441406-2.929688 7.070312s1.070312 5.210938 2.929688 7.070312c1.859374 1.859376 4.441406 2.929688 7.070312 2.929688s5.210938-1.070312 7.070312-2.929688c1.859376-1.859374 2.929688-4.441406 2.929688-7.070312s-1.070312-5.210938-2.929688-7.070312c-1.859374-1.859376-4.441406-2.929688-7.070312-2.929688zm0 0" data-original="#000000" class="active-path" data-old_color="#ffffff" fill="#ffffff"/><path d="m213.117188 119h81.835937l12.476563 90.367188c.679687 4.949218 4.910156 8.632812 9.90625 8.632812h7.359374c-1.9375 4.273438-3.027343 9.011719-3.027343 14 0 18.75 15.25 34 34 34 18.746093 0 34-15.25 34-34 0-4.988281-1.089844-9.726562-3.03125-14h34.339843c-1.9375 4.273438-3.027343 9.011719-3.027343 14 0 18.75 15.25 34 34 34 18.746093 0 34-15.25 34-34 0-4.988281-1.089844-9.726562-3.03125-14h19.082031c5.523438 0 10-4.476562 10-10s-4.476562-10-10-10h-175.953125l-2.761719-20h152.664063c4.691406 0 8.75-3.261719 9.765625-7.84375l26.050781-118c.652344-2.957031-.070313-6.054688-1.96875-8.417969s-4.765625-3.738281-7.796875-3.738281h-197.765625l-4.328125-31.367188c-.683594-4.949218-4.910156-8.632812-9.90625-8.632812h-44.667969c-5.523437 0-10 4.476562-10 10s4.476563 10 10 10h35.953125l10.90625 79h-79.078125c-5.519531 0-10 4.476562-10 10s4.480469 10 10.003907 10zm156.550781 113c0 7.71875-6.28125 14-14 14-7.722657 0-14-6.28125-14-14s6.277343-14 14-14c7.71875 0 14 6.28125 14 14zm96.28125 0c0 7.71875-6.28125 14-14 14-7.722657 0-14-6.28125-14-14s6.277343-14 14-14c7.71875 0 14 6.28125 14 14zm23.601562-172-21.636719 98h-147.386718l-13.53125-98zm0 0" data-original="#000000" class="active-path" data-old_color="#ffffff" fill="#ffffff"/><path d="m173.121094 119c2.628906 0 5.207031-1.070312 7.070312-2.929688 1.859375-1.859374 2.929688-4.441406 2.929688-7.070312s-1.070313-5.210938-2.929688-7.070312c-1.863281-1.859376-4.441406-2.929688-7.070312-2.929688-2.640625 0-5.210938 1.070312-7.082032 2.929688-1.859374 1.859374-2.917968 4.441406-2.917968 7.070312s1.058594 5.210938 2.917968 7.070312c1.871094 1.859376 4.441407 2.929688 7.082032 2.929688zm0 0" data-original="#000000" class="active-path" data-old_color="#ffffff" fill="#ffffff"/><path d="m139.128906 163h91.203125c5.523438 0 10-4.476562 10-10s-4.476562-10-10-10h-91.203125c-5.523437 0-10 4.476562-10 10s4.476563 10 10 10zm0 0" data-original="#000000" class="active-path" data-old_color="#ffffff" fill="#ffffff"/></g> </svg>
