<?xml version="1.0" encoding="iso-8859-1"?>
<!-- Generator: Adobe Illustrator 19.1.0, SVG Export Plug-In . SVG Version: 6.00 Build 0)  -->
<svg version="1.1" id="Capa_1" xmlns="http://www.w3.org/2000/svg" xmlns:xlink="http://www.w3.org/1999/xlink" x="0px" y="0px"
	 viewBox="0 0 48.002 48.002" style="enable-background:new 0 0 48.002 48.002;" xml:space="preserve">
<g id="user">
	<g>
		<path d="M30.542,28.657c3.862-4.028,6.459-10.88,6.459-15.67c0-7.173-5.82-12.988-13-12.988c-7.18,0-13,5.815-13,12.988
			c0,4.789,2.597,11.641,6.458,15.67C7.95,30.604,2.001,37.089,2.001,48.002h44C46.001,37.089,40.052,30.604,30.542,28.657z
			 M13.001,12.988c0-6.06,4.935-10.99,11-10.99s11,4.93,11,10.99c0,4.817-3.029,12.022-6.95,15.277
			c-1.28,1.062-2.654,1.706-4.05,1.706s-2.77-0.644-4.05-1.706C16.03,25.009,13.001,17.804,13.001,12.988z M19.401,30.351
			c1.43,1.014,2.98,1.619,4.6,1.619c1.62,0,3.169-0.605,4.6-1.619c8.269,1.204,14.576,5.896,15.325,15.653H4.076
			C4.826,36.247,11.133,31.554,19.401,30.351z"/>
	</g>
</g>
<g>
</g>
<g>
</g>
<g>
</g>
<g>
</g>
<g>
</g>
<g>
</g>
<g>
</g>
<g>
</g>
<g>
</g>
<g>
</g>
<g>
</g>
<g>
</g>
<g>
</g>
<g>
</g>
<g>
</g>
</svg>
